inDegrees=yes
name=ik_Xsens_4_quaternion - Copie
DataType=double
version=3
OpenSimVersion=4.4-2022-07-23-0e9fedc
endheader
time	r_shoulder_elev	r_elbow_flex
35.95	-0.1781525406084221	9.819545549703834
35.96666666666667	-0.2544976448585232	9.812737046095195
35.98333333333333	-0.338612368019703	9.829348699674457
36	-0.4287942746194931	9.864650128747492
36.01666666666667	-0.5103855046128383	9.911235606930681
36.03333333333333	-0.5764226030688097	9.981328729798641
36.05	-0.6273626588378668	10.10095605043658
36.06666666666666	-0.6776905102559516	10.26713039969238
36.08333333333334	-0.7261372377349871	10.46357710311029
36.1	-0.7712408956427242	10.66018250039393
36.11666666666667	-0.8147189400225266	10.87303615499366
36.13333333333333	-0.8569214216344146	11.09893000499481
36.15	-0.911972737821967	11.38246282170732
36.16666666666666	-0.9950168351929422	11.73953738408533
36.18333333333333	-1.075710311344296	12.10128514308258
36.2	-1.163008802730579	12.4305052157795
36.21666666666667	-1.241903884647258	12.64093302429178
36.23333333333333	-1.317995231373741	12.76062121039544
36.25	-1.394711535019359	12.84674626836335
36.26666666666667	-1.472598121737868	12.93802867834754
36.28333333333333	-1.558893585784931	13.05100919700611
36.3	-1.640022674355983	13.18996568448773
36.31666666666666	-1.707449930241818	13.34182816003614
36.33333333333334	-1.754487399542769	13.45253609685071
36.35	-1.778343334147894	13.58026021175552
36.36666666666667	-1.806856608876069	13.70211565077096
36.38333333333333	-1.847573647561331	13.80257703473064
36.4	-1.908004054717598	13.85476381439296
36.41666666666666	-1.961333677096774	13.88030413750779
36.43333333333333	-2.019170136168265	13.89206301277858
36.45	-2.075093570460813	13.93616605253908
36.46666666666667	-2.119019949834288	13.9926490340063
36.48333333333333	-2.136563985346597	14.05876410091923
36.5	-2.144438451948595	14.14381847273417
36.51666666666667	-2.145603389681312	14.19459705459274
36.53333333333333	-2.13588689600632	14.25079006613887
36.55	-2.133011864266568	14.30124430160835
36.56666666666666	-2.127710833008107	14.3026495535346
36.58333333333334	-2.135678652850055	14.29700137978458
36.6	-2.119541168595034	14.308056267784
36.61666666666667	-2.120484192893931	14.34469987962177
36.63333333333333	-2.122369993865585	14.3780723357989
36.65	-2.114591060773732	14.38917704074281
36.66666666666666	-2.112415209993783	14.42878485867309
36.68333333333333	-2.101908630668635	14.44072320325849
36.7	-2.094421071826763	14.47900876782855
36.71666666666667	-2.078931070551774	14.52081588057779
36.73333333333333	-2.062442996081729	14.53158639192955
36.75	-2.036500906883621	14.55270571498827
36.76666666666667	-2.024646414971545	14.55983124178245
36.78333333333333	-2.015254407862752	14.52764743372545
36.8	-2.009645986527485	14.47178308446803
36.81666666666666	-2.008175469198723	14.38186663687885
36.83333333333334	-1.993902682137931	14.2634317737616
36.85	-1.965854318804926	14.14875782415466
36.86666666666667	-1.9296889553444	14.02922603916951
36.88333333333333	-1.896404011271285	13.92045961033555
36.9	-1.869272064697745	13.793862490609
36.91666666666666	-1.840876096370006	13.67887830090767
36.93333333333333	-1.816233168761834	13.61362017686081
36.95	-1.787427317846641	13.54260173999034
36.96666666666667	-1.742986794286572	13.45510919518202
36.98333333333333	-1.679406061920195	13.35830563212138
37	-1.606218342067748	13.26475532448332
37.01666666666667	-1.510512077881935	13.19735582042634
37.03333333333333	-1.411118194483449	13.19703551090824
37.05	-1.324406481828119	13.24938825017322
37.06666666666666	-1.271236679919078	13.25634939559863
37.08333333333334	-1.225888229054309	13.25478629393746
37.1	-1.184870877149008	13.21545758402454
37.11666666666667	-1.13692664444113	13.17710494902886
37.13333333333333	-1.08242207981128	13.15780727806448
37.15	-1.02704608490175	13.18951061531407
37.16666666666666	-0.9592273084493529	13.20818990761108
37.18333333333333	-0.9094409363559195	13.18217756048151
37.2	-0.8815038488916719	13.14329349681122
37.21666666666667	-0.8603473025651256	13.09324567755864
37.23333333333333	-0.8350962112852941	13.03822927198384
